<?xml version="1.0" standalone="no"?>
<!DOCTYPE svg PUBLIC "-//W3C//DTD SVG 20010904//EN"
 "http://www.w3.org/TR/2001/REC-SVG-20010904/DTD/svg10.dtd">
<svg version="1.0" xmlns="http://www.w3.org/2000/svg"
 width="512.000000pt" height="512.000000pt" viewBox="0 0 512.000000 512.000000"
 preserveAspectRatio="xMidYMid meet">
<metadata>
Created by potrace 1.16, written by Peter Selinger 2001-2019
</metadata>
<g transform="translate(0.000000,512.000000) scale(0.100000,-0.100000)"
fill="#000000" stroke="none">
<path d="M3605 5109 c-11 -6 -827 -817 -1812 -1803 l-1793 -1791 0 -705 c0
-686 1 -706 20 -738 11 -18 34 -41 52 -52 32 -19 52 -20 726 -20 583 0 697 2
720 14 33 18 3575 3562 3591 3593 14 28 14 118 0 146 -16 31 -1318 1335 -1351
1353 -32 16 -124 18 -153 3z m600 -909 l520 -520 -203 -202 -202 -203 -522
522 -523 523 200 200 c110 110 202 200 205 200 3 0 239 -234 525 -520z m-640
-640 l520 -520 -1323 -1323 -1322 -1322 -522 523 -523 522 1320 1320 c726 726
1322 1320 1325 1320 3 0 239 -234 525 -520z m-2880 -2880 l360 -360 -363 0
-362 0 0 360 c0 198 1 360 3 360 1 0 164 -162 362 -360z"/>
</g>
</svg>
